<svg xmlns="http://www.w3.org/2000/svg" viewBox="0 0 512 512">
  <defs>
    <linearGradient id="cekasGradient" x1="0%" y1="100%" x2="100%" y2="0%">
      <stop offset="0%" style="stop-color:#ffffff;stop-opacity:1" />
      <stop offset="100%" style="stop-color:#10B981;stop-opacity:1" />
    </linearGradient>
  </defs>
  <rect width="512" height="512" rx="128" fill="#2563EB"/>
  <path d="M360.5,138.2c-31.6-24.3-71.5-37.5-113.9-35.8c-88.9,3.5-162.7,75.4-169.6,164.2c-3.5,45.3,11.8,88.9,41.7,122.4
	c27.1,30.3,65.7,48.9,107.8,49.9c45.8,1.1,88.9-16.6,120.7-47.2c11.1-10.7,8.8-29.3-4.6-37c-12.9-7.4-29.1-4.6-39.6,6.2
	c-19.5,20.1-46.8,32.2-76.7,31.6c-55.2-1.1-101.7-45.5-105.6-100.6c-4.2-59.7,44.6-110.6,104.1-112.8c29.1-1.1,56.5,9.7,77.6,28.5
	c11.4,10.1,28.7,10.5,40.3,0.7C354.6,198.4,369.1,160.2,360.5,138.2z M427.1,99.6c-11.8-12.9-30.5-16.8-45.8-9.2
	c-6.8,3.3-12.5,9-15.8,15.8c-7.6,15.3-3.7,34,9.2,45.8c12.9,11.8,32.4,11.8,45.3,0C432.8,140.2,438.9,112.5,427.1,99.6z" 
  fill="url(#cekasGradient)"/>
</svg>